<?xml version="1.0" encoding="UTF-8"?>
<svg xmlns="http://www.w3.org/2000/svg" version="1.1" viewBox="0 0 171 197.7">
  <defs>
    <style>
      .cls-1, .cls-2, .cls-3 {
        stroke-width: 0px;
      }

      .cls-1, .cls-3 {
        fill: #000;
      }

      .cls-2 {
        fill: none;
      }

      .cls-3 {
        fill-rule: evenodd;
      }

      .cls-4 {
        display: none;
      }
    </style>
  </defs>
  <g id="lower" class="cls-4">
    <path class="cls-1" d="M103,131.4c-5.2,0-9.4,3-9.4,6.6s4.2,6.6,9.5,6.6,9.4-3,9.4-6.6-4.2-6.6-9.5-6.6ZM105.3,143.3c-1.9.8-4.5-.9-5.8-3.8s-.8-6,1.2-6.8,4.5.9,5.8,3.8.8,6-1.2,6.8Z"/>
    <rect class="cls-1" x="90.4" y="137.5" width="25.4" height="1"/>
    <path class="cls-1" d="M103,144.6c-5.2,0-9.4,3-9.4,6.6s4.2,6.6,9.5,6.6,9.4-3,9.4-6.6-4.2-6.6-9.5-6.6ZM105.3,156.5c-1.9.8-4.5-.9-5.8-3.8s-.8-6,1.2-6.8,4.5.9,5.8,3.8.8,6-1.2,6.8Z"/>
    <rect class="cls-1" x="90.4" y="150.7" width="25.4" height="1"/>
    <path class="cls-1" d="M103,157.8c-5.2,0-9.4,3-9.4,6.6s4.2,6.6,9.5,6.6,9.4-3,9.4-6.6-4.2-6.6-9.5-6.6ZM105.3,169.7c-1.9.8-4.5-.9-5.8-3.8s-.8-6,1.2-6.8,4.5.9,5.8,3.8.8,6-1.2,6.8Z"/>
    <rect class="cls-1" x="90.4" y="163.9" width="25.4" height="1"/>
    <path class="cls-1" d="M103.1,171c-5.2,0-9.4,3-9.4,6.6s4.2,6.6,9.5,6.6,9.4-3,9.4-6.6-4.2-6.6-9.5-6.6ZM105.4,182.9c-1.9.8-4.5-.9-5.8-3.8s-.8-6,1.2-6.8,4.5.9,5.8,3.8.8,6-1.2,6.8Z"/>
    <rect class="cls-1" x="90.5" y="177.1" width="25.4" height="1"/>
    <path class="cls-1" d="M103.1,184.2c-5.2,0-9.4,3-9.4,6.6s4.2,6.6,9.5,6.6,9.4-3,9.4-6.6-4.2-6.6-9.5-6.6ZM105.4,196.1c-1.9.8-4.5-.9-5.8-3.8s-.8-6,1.2-6.8,4.5.9,5.8,3.8.8,6-1.2,6.8Z"/>
    <rect class="cls-1" x="90.5" y="190.3" width="25.4" height="1"/>
    <path class="cls-1" d="M103.1,137.5c-5.2,0-9.4,3-9.4,6.6s4.2,6.6,9.5,6.6,9.4-3,9.4-6.6-4.2-6.6-9.5-6.6ZM105.4,149.4c-1.9.8-4.5-.9-5.8-3.8s-.8-6,1.2-6.8,4.5.9,5.8,3.8.8,6-1.2,6.8Z"/>
    <path class="cls-1" d="M103,151.7c-5.2,0-9.4,3-9.4,6.6s4.2,6.6,9.5,6.6,9.4-3,9.4-6.6-4.2-6.6-9.5-6.6ZM105.3,163.6c-1.9.8-4.5-.9-5.8-3.8s-.8-6,1.2-6.8,4.5.9,5.8,3.8.8,6-1.2,6.8Z"/>
    <path class="cls-1" d="M103.1,164.4c-5.2,0-9.4,3-9.4,6.6s4.2,6.6,9.5,6.6,9.4-3,9.4-6.6-4.2-6.6-9.5-6.6ZM105.4,176.3c-1.9.8-4.5-.9-5.8-3.8s-.8-6,1.2-6.8,4.5.9,5.8,3.8.8,6-1.2,6.8Z"/>
    <path class="cls-1" d="M103.1,177.6c-5.2,0-9.4,3-9.4,6.6s4.2,6.6,9.5,6.6,9.4-3,9.4-6.6-4.2-6.6-9.5-6.6ZM105.4,189.5c-1.9.8-4.5-.9-5.8-3.8s-.8-6,1.2-6.8,4.5.9,5.8,3.8.8,6-1.2,6.8Z"/>
  </g>
  <g id="upper" class="cls-4">
    <path class="cls-1" d="M102.9.4c-5.2,0-9.4,3-9.4,6.6s4.2,6.6,9.5,6.6,9.4-3,9.4-6.6S108.2.4,102.9.4ZM105.2,12.3c-1.9.8-4.5-.9-5.8-3.8s-.8-6,1.2-6.8,4.5.9,5.8,3.8.8,6-1.2,6.8Z"/>
    <rect class="cls-1" x="90.3" y="6.5" width="25.4" height="1"/>
    <path class="cls-1" d="M102.9,13.6c-5.2,0-9.4,3-9.4,6.6s4.2,6.6,9.5,6.6,9.4-3,9.4-6.6-4.2-6.6-9.5-6.6ZM105.2,25.5c-1.9.8-4.5-.9-5.8-3.8s-.8-6,1.2-6.8,4.5.9,5.8,3.8.8,6-1.2,6.8Z"/>
    <rect class="cls-1" x="90.3" y="19.7" width="25.4" height="1"/>
    <path class="cls-1" d="M102.9,26.8c-5.2,0-9.4,3-9.4,6.6s4.2,6.6,9.5,6.6,9.4-3,9.4-6.6-4.2-6.6-9.5-6.6ZM105.2,38.7c-1.9.8-4.5-.9-5.8-3.8s-.8-6,1.2-6.8,4.5.9,5.8,3.8.8,6-1.2,6.8Z"/>
    <rect class="cls-1" x="90.3" y="32.9" width="25.4" height="1"/>
    <path class="cls-1" d="M103,40c-5.2,0-9.4,3-9.4,6.6s4.2,6.6,9.5,6.6,9.4-3,9.4-6.6-4.2-6.6-9.5-6.6ZM105.3,51.9c-1.9.8-4.5-.9-5.8-3.8s-.8-6,1.2-6.8,4.5.9,5.8,3.8.8,6-1.2,6.8Z"/>
    <rect class="cls-1" x="90.4" y="46.1" width="25.4" height="1"/>
    <path class="cls-1" d="M103,53.2c-5.2,0-9.4,3-9.4,6.6s4.2,6.6,9.5,6.6,9.4-3,9.4-6.6-4.2-6.6-9.5-6.6ZM105.3,65.1c-1.9.8-4.5-.9-5.8-3.8s-.8-6,1.2-6.8,4.5.9,5.8,3.8.8,6-1.2,6.8Z"/>
    <rect class="cls-1" x="90.4" y="59.3" width="25.4" height="1"/>
    <path class="cls-1" d="M103,46.1c-5.2,0-9.4,3-9.4,6.6s4.2,6.6,9.5,6.6,9.4-3,9.4-6.6-4.2-6.6-9.5-6.6ZM105.3,58c-1.9.8-4.5-.9-5.8-3.8s-.8-6,1.2-6.8,4.5.9,5.8,3.8.8,6-1.2,6.8Z"/>
    <path class="cls-1" d="M103,33.4c-5.2,0-9.4,3-9.4,6.6s4.2,6.6,9.5,6.6,9.4-3,9.4-6.6-4.2-6.6-9.5-6.6ZM105.3,45.3c-1.9.8-4.5-.9-5.8-3.8s-.8-6,1.2-6.8,4.5.9,5.8,3.8.8,6-1.2,6.8Z"/>
    <path class="cls-1" d="M102.9,20.2c-5.2,0-9.4,3-9.4,6.6s4.2,6.6,9.5,6.6,9.4-3,9.4-6.6-4.2-6.6-9.5-6.6ZM105.2,32.1c-1.9.8-4.5-.9-5.8-3.8s-.8-6,1.2-6.8,4.5.9,5.8,3.8.8,6-1.2,6.8Z"/>
    <path class="cls-1" d="M102.9,7c-5.2,0-9.4,3-9.4,6.6s4.2,6.6,9.5,6.6,9.4-3,9.4-6.6-4.2-6.6-9.5-6.6ZM105.2,18.9c-1.9.8-4.5-.9-5.8-3.8s-.8-6,1.2-6.8,4.5.9,5.8,3.8.8,6-1.2,6.8Z"/>
  </g>
  <g id="middle">
    <path class="cls-1" d="M103.3,118.2c-5.2,0-9.4,3-9.4,6.6s4.2,6.6,9.5,6.6,9.4-3,9.4-6.6-4.2-6.6-9.5-6.6ZM105.6,130.1c-1.9.8-4.5-.9-5.8-3.8s-.8-6,1.2-6.8,4.5.9,5.8,3.8.8,6-1.2,6.8Z"/>
  </g>
  <g id="staff">
    <g>
      <rect class="cls-1" x="15.5" y="72.7" width="3.8" height="52.7"/>
      <rect class="cls-1" x="24.7" y="72.7" width="2" height="52.7"/>
      <rect class="cls-1" x="15.5" y="72.4" width="142.5" height="1"/>
      <rect class="cls-1" x="15.5" y="85.4" width="142.5" height="1"/>
      <rect class="cls-1" x="15.6" y="98.4" width="142.5" height="1"/>
      <rect class="cls-1" x="15.6" y="111.4" width="142.5" height="1"/>
      <rect class="cls-1" x="15.5" y="124.4" width="142.5" height="1"/>
    </g>
  </g>
  <g id="treble">
    <path class="cls-3" d="M52.2,97.9c5.4-.3,9.9,3.8,11.2,9.4,1.5,6.4-1.2,12-7.1,15.2-.7.4-1,.7-.8,1.6.7,3,1.2,6,1.8,9,.4,1.9.5,3.9,0,5.8-1.1,4-3.9,6-7.8,6.7-3.9.7-8-1-9.9-4.3-1.5-2.6-1.2-6,.8-8.1,1.6-1.7,3.8-2.2,5.7-1.3,2.1,1,3.4,3.5,3,5.7-.4,2.3-2.3,4-4.7,4.2-.2,0-.4-.1-.5.1,0,.2,0,.4.2.5.5.6,1.2.9,2,1.2,4.7,1.3,9.3-2,9.6-6.8,0-1.4,0-2.9-.3-4.3-.6-2.7-1.1-5.3-1.7-8,0-.5-.2-.7-.8-.6-9.5,2.3-17.2-3.4-20.1-11-2.8-7.3-1.4-13.9,3-20.1,2.6-3.7,5.8-6.8,8.9-10.1.5-.5.6-.9.4-1.5-1-4-1.6-8.1-1.2-12.3.3-4.4,1.4-8.6,3.8-12.3.7-1.1,1.6-2,2.8-2.6.9-.5,1.3-.4,2,.3.4.4.7.8.9,1.3,2.4,4.4,3.9,9,3.8,14,0,6.8-2.7,12.6-7,17.7-.2.2-.4.5-.6.7-1,.7-1,1.6-.7,2.6.5,2.1.9,4.2,1.3,6.3.1.6.3.9,1,.8.3,0,.7,0,1,0ZM49,122.6c1.1,0,2.2-.2,3.4-.4.7-.1.8-.4.6-1.1-.4-1.6-.7-3.2-1-4.9-.7-3.6-1.4-7.2-2.1-10.8-.2-.9-.3-1-1.1-.6-1.1.5-2,1.3-2.8,2.3-2.5,3.2-1.9,7.2,1.3,9.4.4.3.9.5,1.3.8.3.2.4.4.3.7-.1.3-.3.4-.6.4-.2,0-.4,0-.6-.1-4.7-1.7-7.5-7.2-6.1-12,1-3.4,3.1-5.9,6.2-7.5.5-.2.8-.5.6-1.1-.4-2.1-.9-4.2-1.3-6.3-.1-.6-.2-.7-.8-.3-1.9,1.7-3.8,3.4-5.4,5.4-2.3,2.6-4.2,5.5-5.1,8.8-1.1,4.3-.8,8.3,2,11.9,2.8,3.6,6.7,5.1,11.2,5.2ZM46.9,80.5c0,0,.2,0,.3.1.6-.7,1.3-1.4,1.9-2,2.8-3.1,4.9-6.5,5.7-10.6.3-1.4.5-2.8,0-4.2-.7-1.7-2.2-2.3-3.8-1.3-1.4.9-2.3,2.2-3,3.7-1.4,3.3-2,6.7-1.7,10.3.1,1.4.3,2.8.7,4.1ZM60.1,113.6c0-2.5-.6-4.2-1.7-5.8-1.5-2.1-3.5-3.2-6-3.4-.6,0-.8.1-.7.7,1.1,5.2,2.1,10.4,3.2,15.7.1.6.3.6.8.3,2.8-1.9,4.3-4.5,4.4-7.4Z"/>
  </g>
  <g id="bass" class="cls-4">
    <g>
      <path class="cls-2" d="M47,73.4c7.1,0,14.2,0,21.3,0,.4,0,.4,0,.4.4,0,13.3,0,26.6,0,39.9,0,.4,0,.4-.4.4-12,0-23.9,0-35.9,0-.4,0-.5,0-.4-.4.4.4.9.4,1.5.2.7-.2,1.3-.5,2-.7,5.7-2,11-4.7,15.6-8.8,2.9-2.6,5.1-5.8,6.4-9.5,1-2.8,1.3-5.8,1.1-8.7-.1-2.1-.6-4.1-1.5-6-1.4-2.7-3.3-4.8-6.2-5.9-1.2-.5-2.5-.7-3.8-.9ZM61.9,79.8c0,1.5,1.1,2.7,2.6,2.7,1.5,0,2.8-1.2,2.7-2.7,0-1.6-1.2-2.7-2.7-2.7-1.5,0-2.7,1.1-2.7,2.7ZM64.6,94.4c1.5,0,2.7-1.1,2.7-2.7,0-1.5-1.3-2.7-2.7-2.7-1.5,0-2.7,1.2-2.6,2.7,0,1.5,1.1,2.7,2.7,2.7Z"/>
      <path class="cls-2" d="M32,113.5c0-13.2,0-26.4,0-39.6,0-.5.1-.5.6-.5,3.6,0,7.3,0,10.9,0-1.3.3-2.7.5-3.9,1.2-4.5,2.2-6.8,7-5.6,11.6.6,2.4,2,4.1,4.6,4.5,2.2.3,5.1-.5,5.9-3.7.3-1.2.3-2.3,0-3.4-.5-1.9-1.7-2.9-3.5-3.4-1.6-.4-2.9.2-4.1,1.1-.1,0-.3.3-.4.2-.2-.1,0-.4,0-.5.2-1.4.8-2.5,1.9-3.3,1.5-1.3,3.3-2.1,5.3-2.2,2.4-.2,4.5.4,6.1,2.4.9,1.2,1.6,2.5,1.9,3.9.9,3.3,1.1,6.7.8,10.1-.3,3.7-1.6,7.1-3.7,10.1-2.4,3.4-5.6,6-9.2,8.1-2.1,1.2-4.3,2-6.4,3-.4.2-.7.3-.9.7Z"/>
      <path class="cls-3" d="M32,113.5c.2-.4.6-.5.9-.7,2.1-1,4.4-1.8,6.4-3,3.6-2.1,6.8-4.6,9.2-8.1,2.2-3,3.4-6.4,3.7-10.1.3-3.4,0-6.8-.8-10.1-.4-1.4-1-2.8-1.9-3.9-1.6-1.9-3.7-2.6-6.1-2.4-2,.2-3.8.9-5.3,2.2-1,.9-1.7,2-1.9,3.3,0,.2-.1.4,0,.5.2,0,.3-.1.4-.2,1.2-.9,2.6-1.4,4.1-1.1,1.8.4,3,1.5,3.5,3.4.3,1.1.3,2.3,0,3.4-.8,3.1-3.6,4-5.9,3.7-2.6-.3-4-2.1-4.6-4.5-1.2-4.7,1.1-9.4,5.6-11.6,1.2-.6,2.6-.9,3.9-1.2h3.5c1.3.2,2.6.4,3.8.9,2.9,1.1,4.8,3.2,6.2,5.9,1,1.9,1.4,3.9,1.5,6,.2,3,0,5.9-1.1,8.7-1.3,3.7-3.5,6.8-6.4,9.5-4.5,4.1-9.9,6.8-15.6,8.8-.7.2-1.3.4-2,.7-.5.2-1,.2-1.5-.2,0,0,0-.1,0-.2Z"/>
      <path class="cls-3" d="M61.9,79.8c0-1.5,1.1-2.7,2.7-2.7,1.6,0,2.7,1.1,2.7,2.7,0,1.5-1.2,2.7-2.7,2.7-1.5,0-2.6-1.2-2.6-2.7Z"/>
      <path class="cls-3" d="M64.6,94.4c-1.5,0-2.7-1.1-2.7-2.7,0-1.5,1.1-2.7,2.6-2.7,1.5,0,2.8,1.2,2.7,2.7,0,1.5-1.2,2.7-2.7,2.7Z"/>
    </g>
  </g>
</svg>