<?xml version="1.0" encoding="UTF-8"?>
<svg id="Layer_1" data-name="Layer 1" xmlns="http://www.w3.org/2000/svg" version="1.1" viewBox="0 0 171 157.1">
  <defs>
    <style>
      .cls-1, .cls-2 {
        fill: #000;
        stroke-width: 0px;
      }

      .cls-2 {
        fill-rule: evenodd;
      }
    </style>
  </defs>
  <path class="cls-1" d="M50.5,19.9c-.6-1-1.9-1.2-2.8-.7-4.4,2.9-5.8,8.4-5.9,13.7H15.5v52.7h35.9c.2.8.3,1.8.6,2.5.9,3.7,2.1,8.1,0,11.6-2.3,2.9-7.8,4.9-10.3,1.1,4.8.3,6.2-5.5,3.2-8.5-5.1-4.5-10.6,4.7-6.5,8.8,7.9,7.9,18.8,0,15.7-9.9-.3-1.9-.8-3.8-1.1-5.6h105v-1H52.9s0,0,0,0c-.2-1.1-.2-1.1.9-1.6,1.3-.6,2.4-1.4,3.4-2.4,2.2-2.2,3.2-5.1,3.3-8h97.6v-1H60.4c-.3-6.1-4.9-12.1-11.9-11.7-.3,0-.5,0-.6-.3h110.2v-1H47.6c-.3-1.6-.5-3.2-1-4.7-.6-1.9,0-3.1,1.3-4.4.9-.9,1.7-1.9,2.4-2.9h107.7v-1H50.9c2.1-3.6,3.2-7.7,3.2-12h103.9v-1H54.2c0-4.6-1.3-9.2-3.7-12.9ZM45.9,29.1c.8-1.6,2.1-2.7,3.9-3,.8-.1,1.3.1,1.8.8.9,1.3,1,2.7.7,4.1-.1.6-.3,1.2-.5,1.8h-7.4c.3-1.3.8-2.5,1.4-3.7ZM26.6,59.7h5.4c-1.6,3.5-2.3,7.3-1.3,11.3,0,.2.1.5.2.7h-4.4v-12ZM24.7,84.6h-5.4v-12h5.4v12ZM24.7,71.6h-5.4v-12h5.4v12ZM24.7,58.7h-5.4v-12h5.4v12ZM24.7,45.8h-5.4v-12h5.4v12ZM26.6,72.6h4.6c2,5.9,7.1,10.9,13.3,12h-17.9s0-12,0-12ZM45.2,78.6c.5.2,1,.4,1.6,0-2.8-1.2-4.1-3.6-4.1-6h6.3c.6,3.2,1.2,6.4,1.9,9.6,0,.4,0,.6-.4.7-8.2,2.5-15-3.4-16.3-8.9,0-.4-.2-.9-.2-1.3h6c.6,2.7,2.4,5.1,5.3,6ZM49.2,84.6c.3,0,.6,0,.8-.1.4-.2.7,0,.9.1h-1.8ZM52.4,82.1c-.7-3.2-1.3-6.4-2-9.5h6.4c.9,3.8-.3,8-4.4,9.5ZM56.5,71.6h-6.3c-.4-2-.8-3.9-1.2-5.9,3.7,0,6.4,2.7,7.5,5.9ZM48.8,71.6h-6c.3-2.4,1.9-4.6,4.4-5.6.5-.2.5,0,.6.4.3,1.7.7,3.4,1,5.2ZM46.2,59.7c.1.5-.1.7-.5,1-1.2,1-2.6,1.9-3.6,3-2,2.1-2.8,5.1-2.5,7.9h-5.9c-.3-4.5,1.7-8.5,4.4-12h8s0,0,0,0ZM39,58.7c1.8-2.2,3.9-4.1,5.8-5.9.5,2.1.8,3.9,1.2,5.9h-7.1ZM32.6,58.7h-5.9v-12h15.1c-3.4,3.4-7,7.5-9.2,12ZM26.6,45.8v-12h15.2c0,1.6.1,3.1.3,4.5.3,2.1.9,4.1,1.3,6.2.2.6-.1,1-.5,1.3,0,0-16.3,0-16.3,0ZM44.9,43.9c0,0-.2,0-.3,0-.9-3.3-1-6.8-.3-10.1h7.3c-1.3,3.9-3.3,7.6-6.7,10.1Z"/>
  <path class="cls-2" d="M97.5,27.3h1c2.5.1,4.6.7,6.3,1.7,1.5.9,3.2,2.3,3.2,4.7s-.5,2.2-1.1,2.9c-.6.8-1.3,1.3-2.2,1.8-1.7,1-3.7,1.6-6.3,1.7h-1c-2.5-.1-4.6-.7-6.3-1.6-1.7-.9-3.1-2.2-3.4-4.6v-.5c0-1.1.6-2.1,1.2-2.8.6-.8,1.4-1.3,2.2-1.8,1.7-1,3.9-1.5,6.3-1.6ZM95.1,28.6c-1.3.3-1.9,1.5-1.9,3,0,.8.2,1.5.4,2.1.2.6.5,1.2.8,1.7.9,1.4,2.2,2.8,3.9,3.5.6.2,1.4.4,2.1.3,1.4-.2,2.1-1.2,2.3-2.7.1-1.6-.4-2.9-1-3.9-.6-1-1.3-1.9-2.3-2.7-.9-.7-2.1-1.4-3.6-1.4-.2,0-.5,0-.7,0Z"/>
</svg>