<?xml version="1.0" encoding="UTF-8"?>
<svg xmlns="http://www.w3.org/2000/svg" version="1.1" viewBox="0 0 171 197.7">
  <defs>
    <style>
      .cls-1 {
        fill: #000;
        stroke-width: 0px;
      }
    </style>
  </defs>
  <g id="Layer_1" data-name="Layer 1">
    <path class="cls-1" d="M102.6,131.4c-5.2,0-9.4,3-9.4,6.6s4.2,6.6,9.5,6.6,9.4-3,9.4-6.6-4.2-6.6-9.5-6.6ZM104.9,143.3c-1.9.8-4.5-.9-5.8-3.8s-.8-6,1.2-6.8,4.5.9,5.8,3.8.8,6-1.2,6.8Z"/>
    <rect class="cls-1" x="90.4" y="137.5" width="25.4" height="1"/>
    <path class="cls-1" d="M102.6,144.6c-5.2,0-9.4,3-9.4,6.6s4.2,6.6,9.5,6.6,9.4-3,9.4-6.6-4.2-6.6-9.5-6.6ZM104.9,156.5c-1.9.8-4.5-.9-5.8-3.8s-.8-6,1.2-6.8,4.5.9,5.8,3.8.8,6-1.2,6.8Z"/>
    <rect class="cls-1" x="90.4" y="150.7" width="25.4" height="1"/>
    <path class="cls-1" d="M102.6,157.8c-5.2,0-9.4,3-9.4,6.6s4.2,6.6,9.5,6.6,9.4-3,9.4-6.6-4.2-6.6-9.5-6.6ZM104.9,169.7c-1.9.8-4.5-.9-5.8-3.8s-.8-6,1.2-6.8,4.5.9,5.8,3.8.8,6-1.2,6.8Z"/>
    <rect class="cls-1" x="90.4" y="163.9" width="25.4" height="1"/>
    <path class="cls-1" d="M102.7,171c-5.2,0-9.4,3-9.4,6.6s4.2,6.6,9.5,6.6,9.4-3,9.4-6.6-4.2-6.6-9.5-6.6ZM105,182.9c-1.9.8-4.5-.9-5.8-3.8s-.8-6,1.2-6.8,4.5.9,5.8,3.8.8,6-1.2,6.8Z"/>
    <rect class="cls-1" x="90.5" y="177.1" width="25.4" height="1"/>
    <path class="cls-1" d="M102.7,184.2c-5.2,0-9.4,3-9.4,6.6s4.2,6.6,9.5,6.6,9.4-3,9.4-6.6-4.2-6.6-9.5-6.6ZM105,196.1c-1.9.8-4.5-.9-5.8-3.8s-.8-6,1.2-6.8,4.5.9,5.8,3.8.8,6-1.2,6.8Z"/>
    <rect class="cls-1" x="90.5" y="190.3" width="25.4" height="1"/>
    <path class="cls-1" d="M102.5.4c-5.2,0-9.4,3-9.4,6.6s4.2,6.6,9.5,6.6,9.4-3,9.4-6.6S107.8.4,102.5.4ZM104.8,12.3c-1.9.8-4.5-.9-5.8-3.8s-.8-6,1.2-6.8,4.5.9,5.8,3.8.8,6-1.2,6.8Z"/>
    <rect class="cls-1" x="90.3" y="6.5" width="25.4" height="1"/>
    <path class="cls-1" d="M102.5,13.6c-5.2,0-9.4,3-9.4,6.6s4.2,6.6,9.5,6.6,9.4-3,9.4-6.6-4.2-6.6-9.5-6.6ZM104.8,25.5c-1.9.8-4.5-.9-5.8-3.8s-.8-6,1.2-6.8,4.5.9,5.8,3.8.8,6-1.2,6.8Z"/>
    <rect class="cls-1" x="90.3" y="19.7" width="25.4" height="1"/>
    <path class="cls-1" d="M102.5,26.8c-5.2,0-9.4,3-9.4,6.6s4.2,6.6,9.5,6.6,9.4-3,9.4-6.6-4.2-6.6-9.5-6.6ZM104.8,38.7c-1.9.8-4.5-.9-5.8-3.8s-.8-6,1.2-6.8,4.5.9,5.8,3.8.8,6-1.2,6.8Z"/>
    <rect class="cls-1" x="90.3" y="32.9" width="25.4" height="1"/>
    <path class="cls-1" d="M102.6,40c-5.2,0-9.4,3-9.4,6.6s4.2,6.6,9.5,6.6,9.4-3,9.4-6.6-4.2-6.6-9.5-6.6ZM104.9,51.9c-1.9.8-4.5-.9-5.8-3.8s-.8-6,1.2-6.8,4.5.9,5.8,3.8.8,6-1.2,6.8Z"/>
    <rect class="cls-1" x="90.4" y="46.1" width="25.4" height="1"/>
    <path class="cls-1" d="M102.6,53.2c-5.2,0-9.4,3-9.4,6.6s4.2,6.6,9.5,6.6,9.4-3,9.4-6.6-4.2-6.6-9.5-6.6ZM104.9,65.1c-1.9.8-4.5-.9-5.8-3.8s-.8-6,1.2-6.8,4.5.9,5.8,3.8.8,6-1.2,6.8Z"/>
    <rect class="cls-1" x="90.4" y="59.3" width="25.4" height="1"/>
    <path class="cls-1" d="M102.5,124.8c-5.2,0-9.4,3-9.4,6.6s4.2,6.6,9.5,6.6,9.4-3,9.4-6.6-4.2-6.6-9.5-6.6ZM104.8,136.7c-1.9.8-4.5-.9-5.8-3.8s-.8-6,1.2-6.8,4.5.9,5.8,3.8.8,6-1.2,6.8Z"/>
    <path class="cls-1" d="M102.6,59.3c-5.2,0-9.4,3-9.4,6.6s4.2,6.6,9.5,6.6,9.4-3,9.4-6.6-4.2-6.6-9.5-6.6ZM104.9,71.2c-1.9.8-4.5-.9-5.8-3.8s-.8-6,1.2-6.8,4.5.9,5.8,3.8.8,6-1.2,6.8Z"/>
    <path class="cls-1" d="M102.5,111.8c-5.2,0-9.4,3-9.4,6.6s4.2,6.6,9.5,6.6,9.4-3,9.4-6.6-4.2-6.6-9.5-6.6ZM104.8,123.7c-1.9.8-4.5-.9-5.8-3.8s-.8-6,1.2-6.8,4.5.9,5.8,3.8.8,6-1.2,6.8Z"/>
    <path class="cls-1" d="M102.5,99.1c-5.2,0-9.4,3-9.4,6.6s4.2,6.6,9.5,6.6,9.4-3,9.4-6.6-4.2-6.6-9.5-6.6ZM104.8,111c-1.9.8-4.5-.9-5.8-3.8s-.8-6,1.2-6.8,4.5.9,5.8,3.8.8,6-1.2,6.8Z"/>
    <path class="cls-1" d="M102.5,85.5c-5.2,0-9.4,3-9.4,6.6s4.2,6.6,9.5,6.6,9.4-3,9.4-6.6-4.2-6.6-9.5-6.6ZM104.8,97.4c-1.9.8-4.5-.9-5.8-3.8s-.8-6,1.2-6.8,4.5.9,5.8,3.8.8,6-1.2,6.8Z"/>
    <path class="cls-1" d="M102.5,73c-5.2,0-9.4,3-9.4,6.6s4.2,6.6,9.5,6.6,9.4-3,9.4-6.6-4.2-6.6-9.5-6.6ZM104.8,84.9c-1.9.8-4.5-.9-5.8-3.8s-.8-6,1.2-6.8,4.5.9,5.8,3.8.8,6-1.2,6.8Z"/>
    <path class="cls-1" d="M102.7,137.5c-5.2,0-9.4,3-9.4,6.6s4.2,6.6,9.5,6.6,9.4-3,9.4-6.6-4.2-6.6-9.5-6.6ZM105,149.4c-1.9.8-4.5-.9-5.8-3.8s-.8-6,1.2-6.8,4.5.9,5.8,3.8.8,6-1.2,6.8Z"/>
    <path class="cls-1" d="M102.6,151.7c-5.2,0-9.4,3-9.4,6.6s4.2,6.6,9.5,6.6,9.4-3,9.4-6.6-4.2-6.6-9.5-6.6ZM104.9,163.6c-1.9.8-4.5-.9-5.8-3.8s-.8-6,1.2-6.8,4.5.9,5.8,3.8.8,6-1.2,6.8Z"/>
    <path class="cls-1" d="M102.7,164.4c-5.2,0-9.4,3-9.4,6.6s4.2,6.6,9.5,6.6,9.4-3,9.4-6.6-4.2-6.6-9.5-6.6ZM105,176.3c-1.9.8-4.5-.9-5.8-3.8s-.8-6,1.2-6.8,4.5.9,5.8,3.8.8,6-1.2,6.8Z"/>
    <path class="cls-1" d="M102.7,177.6c-5.2,0-9.4,3-9.4,6.6s4.2,6.6,9.5,6.6,9.4-3,9.4-6.6-4.2-6.6-9.5-6.6ZM105,189.5c-1.9.8-4.5-.9-5.8-3.8s-.8-6,1.2-6.8,4.5.9,5.8,3.8.8,6-1.2,6.8Z"/>
    <path class="cls-1" d="M102.6,105.3c-5.2,0-9.4,3-9.4,6.6s4.2,6.6,9.5,6.6,9.4-3,9.4-6.6-4.2-6.6-9.5-6.6ZM104.9,117.2c-1.9.8-4.5-.9-5.8-3.8s-.8-6,1.2-6.8,4.5.9,5.8,3.8.8,6-1.2,6.8Z"/>
    <path class="cls-1" d="M102.4,92.3c-5.2,0-9.4,3-9.4,6.6s4.2,6.6,9.5,6.6,9.4-3,9.4-6.6-4.2-6.6-9.5-6.6ZM104.7,104.2c-1.9.8-4.5-.9-5.8-3.8s-.8-6,1.2-6.8,4.5.9,5.8,3.8.8,6-1.2,6.8Z"/>
    <path class="cls-1" d="M102.4,78.9c-5.2,0-9.4,3-9.4,6.6s4.2,6.6,9.5,6.6,9.4-3,9.4-6.6-4.2-6.6-9.5-6.6ZM104.7,90.8c-1.9.8-4.5-.9-5.8-3.8s-.8-6,1.2-6.8,4.5.9,5.8,3.8.8,6-1.2,6.8Z"/>
  </g>
  <g id="Layer_2" data-name="Layer 2">
    <g>
      <rect class="cls-1" x="15.5" y="72.7" width="3.8" height="52.7"/>
      <rect class="cls-1" x="24.7" y="72.7" width="2" height="52.7"/>
      <rect class="cls-1" x="15.5" y="72.4" width="142.5" height="1"/>
      <rect class="cls-1" x="15.5" y="85.4" width="142.5" height="1"/>
      <rect class="cls-1" x="15.6" y="98.4" width="142.5" height="1"/>
      <rect class="cls-1" x="15.6" y="111.4" width="142.5" height="1"/>
      <rect class="cls-1" x="15.5" y="124.4" width="142.5" height="1"/>
    </g>
  </g>
</svg>