<?xml version="1.0" encoding="UTF-8"?>
<svg id="Layer_1" data-name="Layer 1" xmlns="http://www.w3.org/2000/svg" version="1.1" viewBox="0 0 100 125">
  <defs>
    <style>
      .cls-1 {
        fill: #000;
        stroke-width: 0px;
      }
    </style>
  </defs>
  <path class="cls-1" d="M12.9,36.8v26.9h74.2v-.5H18.7v-6.2h68.4v-.5H23.7c.2,0,.4-.1.6-.2,3.2-1.7,6.5-3.4,9-6h53.8v-.5h-53.3c.6-.7,1.2-1.4,1.7-2.2.8-1.3,1.2-2.7,1.2-4h50.4v-.5h-50.4c-.2-3.5-2.9-6.6-7-6.2-2.5.3-5.1,1.7-5.6,4.4-.1.6-.1,1.3.2,1.8h-5.5v-6.2h68.4v-.5H12.9v.5ZM29.3,42.1c-.5-1.5-2.1-1.5-3.4-1.5-.8,0-.3-1.3,0-1.6,2.1-2.2,6.1-2,7,1.2.3.9.3,1.8.3,2.7h-3.9c0-.3,0-.5,0-.9ZM18.7,43.5h5.8c0,0,.1.2.2.2,1.1,1.1,3.5,1,4.3-.2h4.1c-.2,2.2-1.1,4.4-2.4,6.2h-12.1v-6.2ZM18.7,50.2h11.7s0,0,0,0c-1.9,2.6-4.8,4-7,6.2,0,0,.2,0,.2,0h-4.9s0-6.2,0-6.2ZM14.9,36.8h2.8v6.2h-2.8v-6.2ZM14.9,43.5h2.8v6.2h-2.8v-6.2ZM14.9,50.2h2.8v6.2h-2.8v-6.2ZM14.9,57h2.8v6.2h-2.8v-6.2Z"/>
  <path class="cls-1" d="M39.2,40.4c0,2,2.9,2,2.9,0,0-2-2.9-2.1-2.9,0Z"/>
  <path class="cls-1" d="M39.2,45.5c0,2.1,2.8,2,2.9,0,0-2-2.8-2-2.9,0Z"/>
</svg>