<?xml version="1.0" encoding="UTF-8"?>
<svg id="Layer_1" data-name="Layer 1" xmlns="http://www.w3.org/2000/svg" version="1.1" viewBox="0 0 100 125">
  <defs>
    <style>
      .cls-1 {
        fill: #000;
        stroke-width: 0px;
      }
    </style>
  </defs>
  <path class="cls-1" d="M31.1,28.3c-.3-.5-1-.6-1.4-.4-2.3,1.5-3,4.4-3.1,7.1h-13.7v27.4h18.7c.1.4.2.9.3,1.3.5,1.9,1.1,4.2,0,6-1.2,1.5-4.1,2.6-5.4.6,2.5.1,3.2-2.8,1.6-4.4-2.6-2.3-5.5,2.5-3.4,4.6,4.1,4.1,9.8,0,8.2-5.2-.2-1-.4-2-.6-2.9h54.6v-.5h-54.7s0,0,0,0c-.1-.6,0-.6.5-.8.7-.3,1.3-.7,1.8-1.2,1.1-1.1,1.7-2.6,1.7-4.2h50.8v-.5h-50.8c-.2-3.2-2.5-6.3-6.2-6.1-.2,0-.3,0-.3-.1h57.3v-.5H29.6c-.1-.8-.3-1.6-.5-2.4-.3-1,0-1.6.7-2.3.5-.5.9-1,1.2-1.5h56v-.5H31.4c1.1-1.8,1.6-4,1.7-6.2h54.1v-.5h-54.1c0-2.4-.7-4.8-1.9-6.7ZM28.7,33.1c.4-.8,1.1-1.4,2-1.6.4,0,.7,0,.9.4.5.7.5,1.4.4,2.1,0,.3-.2.6-.2,1h-3.8c.2-.7.4-1.3.8-1.9ZM18.7,49h2.8c-.8,1.8-1.2,3.8-.7,5.9,0,.1,0,.2.1.4h-2.3v-6.2ZM17.7,61.9h-2.8v-6.2h2.8v6.2ZM17.7,55.2h-2.8v-6.2h2.8v6.2ZM17.7,48.5h-2.8v-6.2h2.8v6.2ZM17.7,41.7h-2.8v-6.2h2.8v6.2ZM18.7,55.7h2.4c1,3.1,3.7,5.7,6.9,6.2h-9.3s0-6.2,0-6.2ZM28.3,58.9c.2,0,.5.2.8,0-1.5-.6-2.1-1.9-2.1-3.1h3.3c.3,1.7.6,3.3,1,5,0,.2,0,.3-.2.4-4.3,1.3-7.8-1.8-8.5-4.6,0-.2,0-.5-.1-.7h3.1c.3,1.4,1.2,2.6,2.8,3.1ZM30.4,61.9c.1,0,.3,0,.4,0,.2,0,.4,0,.5,0h-.9ZM32.1,60.7c-.3-1.7-.7-3.3-1-5h3.3c.5,2-.2,4.2-2.3,5ZM34.2,55.2h-3.3c-.2-1-.4-2-.6-3.1,1.9,0,3.3,1.4,3.9,3.1ZM30.2,55.2h-3.1c.2-1.2,1-2.4,2.3-2.9.2-.1.3,0,.3.2.2.9.4,1.8.5,2.7ZM28.9,49c0,.2,0,.4-.2.5-.6.5-1.3,1-1.9,1.6-1.1,1.1-1.5,2.7-1.3,4.1h-3.1c-.1-2.3.9-4.4,2.3-6.2h4.2s0,0,0,0ZM25.1,48.5c.9-1.1,2-2.1,3-3.1.2,1.1.4,2.1.6,3.1h-3.7ZM21.8,48.5h-3.1v-6.2h7.9c-1.7,1.8-3.6,3.9-4.8,6.2ZM18.7,41.7v-6.2h7.9c0,.8,0,1.6.1,2.3.2,1.1.4,2.1.7,3.2,0,.3,0,.5-.3.7,0,0-8.5,0-8.5,0ZM28.2,40.8s0,0-.1,0c-.5-1.7-.5-3.5-.2-5.2h3.8c-.7,2.1-1.7,4-3.5,5.3Z"/>
</svg>