<?xml version="1.0" encoding="UTF-8"?>
<svg id="Layer_1" data-name="Layer 1" xmlns="http://www.w3.org/2000/svg" version="1.1" viewBox="0 0 100 125">
  <defs>
    <style>
      .cls-1 {
        fill: #000;
        fill-rule: evenodd;
        stroke-width: 0px;
      }
    </style>
  </defs>
  <path class="cls-1" d="M48.1,16.7h4.8c12.3.6,22.2,3.5,30.4,8.3,7.5,4.3,15.7,11.2,15.7,23s-2.5,10.5-5.3,14.1c-2.9,3.7-6.5,6.5-10.5,8.8-8.4,4.7-18.1,7.8-30.4,8.3h-4.7c-12-.6-22.5-3.2-30.8-7.8-8-4.5-15.1-10.9-16.4-22.1v-2.6c.3-5.3,2.8-10.2,5.7-13.6,3.1-3.6,6.7-6.3,10.8-8.5,8.3-4.7,18.8-7.4,30.7-7.9ZM36.2,22.6c-6.1,1.5-9.2,7.3-9.4,14.6-.1,4,.9,7.2,1.9,10,1.1,3,2.6,5.7,4,8,4.2,7,10.6,13.8,19,17,2.9,1.1,6.6,2.1,10.2,1.7,6.8-.8,10.4-6,11-13,.6-7.9-2.1-13.9-5-18.8-3-5-6.5-9.3-11-13-4.1-3.4-9.9-6.9-17.3-6.7-1,0-2.4,0-3.4.3Z"/>
</svg>