<?xml version="1.0" encoding="UTF-8"?>
<svg id="Layer_1" data-name="Layer 1" xmlns="http://www.w3.org/2000/svg" version="1.1" viewBox="0 0 100 125">
  <defs>
    <style>
      .cls-1 {
        fill: none;
      }

      .cls-1, .cls-2 {
        stroke-width: 0px;
      }

      .cls-2 {
        fill: #000;
        fill-rule: evenodd;
      }
    </style>
  </defs>
  <path class="cls-1" d="M-16.2,133c0-44.4,0-88.8,0-133.1,0-.6.1-.6.7-.6,56.9,0,113.8,0,170.7,0,.5,0,.7,0,.7.6,0,44.4,0,88.8,0,133.1-.3,0-.6,0-.9,0-56.7,0-113.4,0-170.2,0-.3,0-.6,0-.9,0Z"/>
  <path class="cls-2" d="M52.4,53.5c5.4-.3,9.9,3.8,11.2,9.4,1.5,6.4-1.2,12-7.1,15.2-.7.4-1,.7-.8,1.6.7,3,1.2,6,1.8,9,.4,1.9.5,3.9,0,5.8-1.1,4-3.9,6-7.8,6.7-3.9.7-8-1-9.9-4.3-1.5-2.6-1.2-6,.8-8.1,1.6-1.7,3.8-2.2,5.7-1.3,2.1,1,3.4,3.5,3,5.7-.4,2.3-2.3,4-4.7,4.2-.2,0-.4-.1-.5.1,0,.2,0,.4.2.5.5.6,1.2.9,2,1.2,4.7,1.3,9.3-2,9.6-6.8,0-1.4,0-2.9-.3-4.3-.6-2.7-1.1-5.3-1.7-8,0-.5-.2-.7-.8-.6-9.5,2.3-17.2-3.4-20.1-11-2.8-7.3-1.4-13.9,3-20.1,2.6-3.7,5.8-6.8,8.9-10.1.5-.5.6-.9.4-1.5-1-4-1.6-8.1-1.2-12.3.3-4.4,1.4-8.6,3.8-12.3.7-1.1,1.6-2,2.8-2.6.9-.5,1.3-.4,2,.3.4.4.7.8.9,1.3,2.4,4.4,3.9,9,3.8,14,0,6.8-2.7,12.6-7,17.7-.2.2-.4.5-.6.7-1,.7-1,1.6-.7,2.6.5,2.1.9,4.2,1.3,6.3.1.6.3.9,1,.8.3,0,.7,0,1,0ZM49.3,78.2c1.1,0,2.2-.2,3.4-.4.7-.1.8-.4.6-1.1-.4-1.6-.7-3.2-1-4.9-.7-3.6-1.4-7.2-2.1-10.8-.2-.9-.3-1-1.1-.6-1.1.5-2,1.3-2.8,2.3-2.5,3.2-1.9,7.2,1.3,9.4.4.3.9.5,1.3.8.3.2.4.4.3.7-.1.3-.3.4-.6.4-.2,0-.4,0-.6-.1-4.7-1.7-7.5-7.2-6.1-12,1-3.4,3.1-5.9,6.2-7.5.5-.2.8-.5.6-1.1-.4-2.1-.9-4.2-1.3-6.3-.1-.6-.2-.7-.8-.3-1.9,1.7-3.8,3.4-5.4,5.4-2.3,2.6-4.2,5.5-5.1,8.8-1.1,4.3-.8,8.3,2,11.9,2.8,3.6,6.7,5.1,11.2,5.2ZM47.1,36.1c0,0,.2,0,.3.1.6-.7,1.3-1.4,1.9-2,2.8-3.1,4.9-6.5,5.7-10.6.3-1.4.5-2.8,0-4.2-.7-1.7-2.2-2.3-3.8-1.3-1.4.9-2.3,2.2-3,3.7-1.4,3.3-2,6.7-1.7,10.3.1,1.4.3,2.8.7,4.1ZM60.3,69.2c0-2.5-.6-4.2-1.7-5.8-1.5-2.1-3.5-3.2-6-3.4-.6,0-.8.1-.7.7,1.1,5.2,2.1,10.4,3.2,15.7.1.6.3.6.8.3,2.8-1.9,4.3-4.5,4.4-7.4Z"/>
</svg>